Language: Spanish

Subtitle: English and Portuguese
 
http://www.imdb.com/title/tt0083203

A union organizing demolition worker and a friend of his decide to blackmail the corrupt company they work for setting up a fake accident. Because of a miscalculation the friend dies, but he sticks with the plan and demands a big sum of money as indemnity. When the company refuses to pay, determined to prove the worker is lying, he is forced to make a tragic decision in order to win.


      Format : AVI
      Format/Info : Audio Video Interleave
      Format profile : OpenDML
      File size : 1.41 GiB
      Duration : 1h 47mn
      Overall bit rate : 1 868 Kbps
      Writing application : AVI-Mux GUI 1.17.8, Aug 30 2008  12:36:58
   Video #0
      ID : 0
      Format : MPEG-4 Visual
      Format profile : AdvancedSimple@L5
      Format settings, BVOP : Yes
      Format settings, QPel : No
      Format settings, GMC : No warppoints
      Format settings, Matrix : Default (MPEG)
      Codec ID : XVID
      Codec ID/Hint : XviD
      Duration : 1h 47mn
      Bit rate : 1 699 Kbps
      Width : 720 pixels
      Height : 384 pixels
      Display aspect ratio : 1.875
      Frame rate : 25.000 fps
      Resolution : 24 bits
      Colorimetry : 4:2:0
      Scan type : Progressive
      Bits/(Pixel*Frame) : 0.246
      Stream size : 1.28 GiB (91%)
      Writing library : XviD 1.2.1 (UTC 2008-12-04)
   Audio #1
      ID : 1
      Format : MPEG Audio
      Format version : Version 1
      Format profile : Layer 3
      Codec ID : 55
      Codec ID/Hint : MP3
      Duration : 1h 47mn
      Bit rate mode : Constant
      Bit rate : 160 Kbps
      Channel(s) : 2 channels
      Sampling rate : 44.1 KHz
      Resolution : 16 bits
      Stream size : 124 MiB (9%)
      Alignment : Aligned on interleaves
      Interleave, duration : 26 ms (0.65 video frame)
      Interleave, preload duration : 182 ms
      Title : Neuer Track 1

Upped KG: marx